<svg xmlns="http://www.w3.org/2000/svg" xmlns:xlink="http://www.w3.org/1999/xlink" width="104" height="104" viewBox="0 0 104 104">
  <defs>
    <style>
      .cls-1 {
        fill: #1dbf73;
      }

      .cls-2 {
        fill: url(#linear-gradient);
      }
    </style>
    <linearGradient id="linear-gradient" x1="0.5" y1="0.224" x2="0.5" y2="1" gradientUnits="objectBoundingBox">
      <stop offset="0" stop-color="#fff"/>
      <stop offset="1" stop-color="#fff"/>
    </linearGradient>
  </defs>
  <g id="Group_51" data-name="Group 51" transform="translate(-698.25 -1150)">
    <circle id="Ellipse_4" data-name="Ellipse 4" class="cls-1" cx="52" cy="52" r="52" transform="translate(698.25 1150)"/>
    <g id="Group_50" data-name="Group 50" transform="translate(1 1.254)">
      <path id="Path_83" data-name="Path 83" class="cls-2" d="M32.016,33.622V0L53.778,39.9,39.27,61.659H17.508L3,39.9,24.762,0V33.622a7.254,7.254,0,1,0,7.254,0ZM13.881,65.286H42.9V72.54H13.881Z" transform="translate(721.25 1164.746)"/>
      <path id="Path_84" data-name="Path 84" class="cls-2" d="M32.016,33.622V0L53.778,39.9,39.27,61.659H17.508L3,39.9,24.762,0V33.622a7.254,7.254,0,1,0,7.254,0ZM13.881,65.286H42.9V72.54H13.881Z" transform="translate(721.25 1164.746)"/>
    </g>
  </g>
</svg>
